# xmcd CD database file
#
# Track frame offsets:
#	150
#	14029
#	27986
#	48524
#	70800
#	86207
#	102694
#	117355
#	136264
#	152449
#	164956
#	185170
#	204223
#
# Disc length: 3028 seconds
#
# Revision: 0
# Processed by: cddbd v1.5.2PL0 Copyright (c) Steve Scherf et al.
# Submitted via: CDex 1.70beta2
#
DISCID=bf0bd20d
DTITLE=Michael Bublé - Call Me Irresponsible
DYEAR=2007
DGENRE=Jazz
TTITLE0=Michael Bublé - The Best Is Yet to Come
TTITLE1=Michael Bublé - It Had Better Be Tonight (Meglio Stasera)
TTITLE2=Michael Bublé - Me and Mrs. Jones
TTITLE3=Michael Bublé - I'm Your Man
TTITLE4=Michael Bublé  with Boyz II Men - Comin' Home Baby (Duet With Boyz II Men)
TTITLE5=Michael Bublé  - Lost
TTITLE6=Michael Bublé  - Call Me Irresponsible
TTITLE7=Michael Bublé  - Wonderful Tonight (Duet With Ivan Lins)
TTITLE8=Michael Bublé  - Everything
TTITLE9=Michael Bublé  - I've Got the World On a String
TTITLE10=Michael Bublé  - Always On My Mind
TTITLE11=Michael Bublé  - That's Life
TTITLE12=Michael Bublé  - Dream
EXTD=YEAR: 2007
EXTT0=
EXTT1=
EXTT2=
EXTT3=
EXTT4=
EXTT5=
EXTT6=
EXTT7=
EXTT8=
EXTT9=
EXTT10=
EXTT11=
EXTT12=
PLAYORDER=
